<svg width="706" height="80" viewBox="0 0 706 80" fill="none" xmlns="http://www.w3.org/2000/svg">
<path d="M214 0H150V12H214V0Z" fill="#FFF8ED"/>
<path d="M188 0H176V80H188V0Z" fill="#FFF8ED"/>
<path d="M318 0H264V12H318V0Z" fill="#FFF8ED"/>
<path d="M318 34H264V46H318V34Z" fill="#FFF8ED"/>
<path d="M318 68H264V80H318V68Z" fill="#FFF8ED"/>
<path d="M380 0H368V80H380V0Z" fill="#FFF8ED"/>
<path d="M418 68H368V80H418V68Z" fill="#FFF8ED"/>
<path d="M480 0H468V80H480V0Z" fill="#FFF8ED"/>
<path d="M584 0H530V12H584V0Z" fill="#FFF8ED"/>
<path d="M584 34H530V46H584V34Z" fill="#FFF8ED"/>
<path d="M584 68H530V80H584V68Z" fill="#FFF8ED"/>
<path d="M646 0H634V80H646V0Z" fill="#FFF8ED"/>
<path d="M634 0H670C688 0 697 7 697 20C697 33 689.5 40 670 40H634V28.75H652.5H670C685 28.5 687 28 687 20C687 12 680.5 11 670 11H661.25H652.5H634V0Z" fill="#FFF8ED"/>
<path d="M664 40H680L706 80H690L664 40Z" fill="#FFF8ED"/>
<path d="M0 80L54 0H66L120 80H104L60 15L16 80H0Z" fill="#FFF8ED"/>
</svg>
